<mxfile host="app.diagrams.net" modified="2024-02-02T14:23:15.499Z" agent="Mozilla/5.0 (Windows NT 10.0; Win64; x64) AppleWebKit/537.36 (KHTML, like Gecko) Chrome/121.0.0.0 Safari/537.36" etag="knSzCCMFZAEpQMbkEF1i" version="23.0.2" type="github">
  <diagram name="第 1 页" id="ab_zVHEHfH6Nfnaf-DI3">
    <mxGraphModel dx="916" dy="226" grid="0" gridSize="10" guides="1" tooltips="1" connect="1" arrows="1" fold="1" page="0" pageScale="1" pageWidth="827" pageHeight="1169" math="0" shadow="0">
      <root>
        <mxCell id="0" />
        <mxCell id="1" parent="0" />
        <mxCell id="NQ7LKWeXGkGJgGuX15Nx-6" style="edgeStyle=orthogonalEdgeStyle;rounded=1;orthogonalLoop=1;jettySize=auto;html=1;entryX=0.5;entryY=1;entryDx=0;entryDy=0;curved=0;exitX=0.75;exitY=0;exitDx=0;exitDy=0;" edge="1" parent="1" source="NQ7LKWeXGkGJgGuX15Nx-1" target="NQ7LKWeXGkGJgGuX15Nx-4">
          <mxGeometry relative="1" as="geometry" />
        </mxCell>
        <mxCell id="NQ7LKWeXGkGJgGuX15Nx-8" value="root" style="edgeLabel;html=1;align=center;verticalAlign=middle;resizable=0;points=[];" vertex="1" connectable="0" parent="NQ7LKWeXGkGJgGuX15Nx-6">
          <mxGeometry x="0.3233" y="4" relative="1" as="geometry">
            <mxPoint y="1" as="offset" />
          </mxGeometry>
        </mxCell>
        <mxCell id="NQ7LKWeXGkGJgGuX15Nx-1" value="kernfs_super_info" style="rounded=1;whiteSpace=wrap;html=1;" vertex="1" parent="1">
          <mxGeometry x="47" y="386" width="114" height="45" as="geometry" />
        </mxCell>
        <mxCell id="NQ7LKWeXGkGJgGuX15Nx-3" value="super_block" style="rounded=1;whiteSpace=wrap;html=1;" vertex="1" parent="1">
          <mxGeometry x="-13" y="274" width="114" height="45" as="geometry" />
        </mxCell>
        <mxCell id="NQ7LKWeXGkGJgGuX15Nx-10" style="edgeStyle=orthogonalEdgeStyle;rounded=0;orthogonalLoop=1;jettySize=auto;html=1;entryX=0.5;entryY=1;entryDx=0;entryDy=0;" edge="1" parent="1" source="NQ7LKWeXGkGJgGuX15Nx-4" target="NQ7LKWeXGkGJgGuX15Nx-9">
          <mxGeometry relative="1" as="geometry" />
        </mxCell>
        <mxCell id="NQ7LKWeXGkGJgGuX15Nx-11" value="kn" style="edgeLabel;html=1;align=center;verticalAlign=middle;resizable=0;points=[];" vertex="1" connectable="0" parent="NQ7LKWeXGkGJgGuX15Nx-10">
          <mxGeometry x="-0.5319" y="2" relative="1" as="geometry">
            <mxPoint x="2" y="-9" as="offset" />
          </mxGeometry>
        </mxCell>
        <mxCell id="NQ7LKWeXGkGJgGuX15Nx-4" value="kernfs_root" style="rounded=1;whiteSpace=wrap;html=1;" vertex="1" parent="1">
          <mxGeometry x="140" y="274" width="73" height="45" as="geometry" />
        </mxCell>
        <mxCell id="NQ7LKWeXGkGJgGuX15Nx-5" style="edgeStyle=orthogonalEdgeStyle;rounded=1;orthogonalLoop=1;jettySize=auto;html=1;entryX=0.411;entryY=0.973;entryDx=0;entryDy=0;entryPerimeter=0;curved=0;exitX=0.321;exitY=0.049;exitDx=0;exitDy=0;exitPerimeter=0;" edge="1" parent="1" source="NQ7LKWeXGkGJgGuX15Nx-1" target="NQ7LKWeXGkGJgGuX15Nx-3">
          <mxGeometry relative="1" as="geometry" />
        </mxCell>
        <mxCell id="NQ7LKWeXGkGJgGuX15Nx-7" value="sb" style="edgeLabel;html=1;align=center;verticalAlign=middle;resizable=0;points=[];" vertex="1" connectable="0" parent="NQ7LKWeXGkGJgGuX15Nx-5">
          <mxGeometry x="0.2537" y="-3" relative="1" as="geometry">
            <mxPoint y="1" as="offset" />
          </mxGeometry>
        </mxCell>
        <mxCell id="NQ7LKWeXGkGJgGuX15Nx-9" value="kernfs_node" style="rounded=1;whiteSpace=wrap;html=1;" vertex="1" parent="1">
          <mxGeometry x="136.5" y="195" width="80" height="36" as="geometry" />
        </mxCell>
        <mxCell id="NQ7LKWeXGkGJgGuX15Nx-12" value="kernfs_elem_dir" style="rounded=1;whiteSpace=wrap;html=1;" vertex="1" parent="1">
          <mxGeometry x="2" y="110" width="92" height="36" as="geometry" />
        </mxCell>
        <mxCell id="NQ7LKWeXGkGJgGuX15Nx-13" value="" style="endArrow=open;html=1;endSize=12;startArrow=diamondThin;startSize=14;startFill=0;edgeStyle=orthogonalEdgeStyle;align=left;verticalAlign=bottom;rounded=1;exitX=0.5;exitY=1;exitDx=0;exitDy=0;curved=0;entryX=0.299;entryY=0.017;entryDx=0;entryDy=0;entryPerimeter=0;" edge="1" parent="1" source="NQ7LKWeXGkGJgGuX15Nx-12" target="NQ7LKWeXGkGJgGuX15Nx-9">
          <mxGeometry x="-1" y="3" relative="1" as="geometry">
            <mxPoint x="298" y="449" as="sourcePoint" />
            <mxPoint x="158" y="191" as="targetPoint" />
            <Array as="points">
              <mxPoint x="48" y="171" />
              <mxPoint x="160" y="171" />
              <mxPoint x="160" y="196" />
            </Array>
            <mxPoint as="offset" />
          </mxGeometry>
        </mxCell>
        <mxCell id="NQ7LKWeXGkGJgGuX15Nx-14" value="dir" style="edgeLabel;html=1;align=center;verticalAlign=middle;resizable=0;points=[];" vertex="1" connectable="0" parent="NQ7LKWeXGkGJgGuX15Nx-13">
          <mxGeometry x="0.0476" y="2" relative="1" as="geometry">
            <mxPoint as="offset" />
          </mxGeometry>
        </mxCell>
        <mxCell id="NQ7LKWeXGkGJgGuX15Nx-15" value="kernfs_elem_symlink" style="rounded=1;whiteSpace=wrap;html=1;" vertex="1" parent="1">
          <mxGeometry x="117.75" y="110" width="117.5" height="36" as="geometry" />
        </mxCell>
        <mxCell id="NQ7LKWeXGkGJgGuX15Nx-16" value="" style="endArrow=open;html=1;endSize=12;startArrow=diamondThin;startSize=14;startFill=0;edgeStyle=orthogonalEdgeStyle;align=left;verticalAlign=bottom;rounded=1;entryX=0.5;entryY=0;entryDx=0;entryDy=0;exitX=0.5;exitY=1;exitDx=0;exitDy=0;curved=0;" edge="1" parent="1" source="NQ7LKWeXGkGJgGuX15Nx-15" target="NQ7LKWeXGkGJgGuX15Nx-9">
          <mxGeometry x="-1" y="3" relative="1" as="geometry">
            <mxPoint x="58" y="156" as="sourcePoint" />
            <mxPoint x="187" y="205" as="targetPoint" />
            <mxPoint as="offset" />
          </mxGeometry>
        </mxCell>
        <mxCell id="NQ7LKWeXGkGJgGuX15Nx-17" value="symlink" style="edgeLabel;html=1;align=center;verticalAlign=middle;resizable=0;points=[];" vertex="1" connectable="0" parent="NQ7LKWeXGkGJgGuX15Nx-16">
          <mxGeometry x="0.0476" y="2" relative="1" as="geometry">
            <mxPoint as="offset" />
          </mxGeometry>
        </mxCell>
        <mxCell id="NQ7LKWeXGkGJgGuX15Nx-18" value="kernfs_elem_attr" style="rounded=1;whiteSpace=wrap;html=1;" vertex="1" parent="1">
          <mxGeometry x="250" y="110" width="95" height="36" as="geometry" />
        </mxCell>
        <mxCell id="NQ7LKWeXGkGJgGuX15Nx-19" value="" style="endArrow=open;html=1;endSize=12;startArrow=diamondThin;startSize=14;startFill=0;edgeStyle=orthogonalEdgeStyle;align=left;verticalAlign=bottom;rounded=1;entryX=0.75;entryY=0;entryDx=0;entryDy=0;exitX=0.533;exitY=0.991;exitDx=0;exitDy=0;curved=0;exitPerimeter=0;" edge="1" parent="1" source="NQ7LKWeXGkGJgGuX15Nx-18" target="NQ7LKWeXGkGJgGuX15Nx-9">
          <mxGeometry x="-1" y="3" relative="1" as="geometry">
            <mxPoint x="187" y="156" as="sourcePoint" />
            <mxPoint x="187" y="205" as="targetPoint" />
            <mxPoint as="offset" />
          </mxGeometry>
        </mxCell>
        <mxCell id="NQ7LKWeXGkGJgGuX15Nx-20" value="attr" style="edgeLabel;html=1;align=center;verticalAlign=middle;resizable=0;points=[];" vertex="1" connectable="0" parent="NQ7LKWeXGkGJgGuX15Nx-19">
          <mxGeometry x="0.0476" y="2" relative="1" as="geometry">
            <mxPoint x="1" y="-5" as="offset" />
          </mxGeometry>
        </mxCell>
      </root>
    </mxGraphModel>
  </diagram>
</mxfile>
